<mxfile host="app.diagrams.net" agent="Mozilla/5.0 (Windows NT 10.0; Win64; x64) AppleWebKit/537.36 (KHTML, like Gecko) Chrome/135.0.0.0 Safari/537.36" version="26.2.9">
  <diagram name="페이지-1" id="TfpnI85vyB6fNY1MPC4h">
    <mxGraphModel dx="2068" dy="1111" grid="1" gridSize="10" guides="1" tooltips="1" connect="1" arrows="1" fold="1" page="1" pageScale="1" pageWidth="827" pageHeight="1169" math="0" shadow="0">
      <root>
        <mxCell id="0" />
        <mxCell id="1" parent="0" />
        <mxCell id="UKUCSULhMM2xUb-GKfbj-1" value="" style="swimlane;startSize=0;" vertex="1" parent="1">
          <mxGeometry x="40" y="120" width="400" height="560" as="geometry" />
        </mxCell>
        <mxCell id="UKUCSULhMM2xUb-GKfbj-3" value="" style="rounded=0;whiteSpace=wrap;html=1;" vertex="1" parent="UKUCSULhMM2xUb-GKfbj-1">
          <mxGeometry width="400" height="20" as="geometry" />
        </mxCell>
        <mxCell id="UKUCSULhMM2xUb-GKfbj-4" value="&lt;b&gt;&lt;font style=&quot;font-size: 13px;&quot;&gt;X&lt;/font&gt;&lt;/b&gt;" style="whiteSpace=wrap;html=1;aspect=fixed;" vertex="1" parent="UKUCSULhMM2xUb-GKfbj-1">
          <mxGeometry x="380" width="20" height="20" as="geometry" />
        </mxCell>
        <mxCell id="UKUCSULhMM2xUb-GKfbj-5" value="&lt;b&gt;&lt;font style=&quot;font-size: 15px;&quot;&gt;ㅁ&lt;/font&gt;&lt;/b&gt;" style="whiteSpace=wrap;html=1;aspect=fixed;strokeWidth=1;" vertex="1" parent="UKUCSULhMM2xUb-GKfbj-1">
          <mxGeometry x="360" width="20" height="20" as="geometry" />
        </mxCell>
        <mxCell id="UKUCSULhMM2xUb-GKfbj-6" value="" style="whiteSpace=wrap;html=1;aspect=fixed;" vertex="1" parent="UKUCSULhMM2xUb-GKfbj-1">
          <mxGeometry x="340" width="20" height="20" as="geometry" />
        </mxCell>
        <mxCell id="UKUCSULhMM2xUb-GKfbj-8" value="" style="endArrow=none;html=1;rounded=0;strokeWidth=3;" edge="1" parent="UKUCSULhMM2xUb-GKfbj-1">
          <mxGeometry width="50" height="50" relative="1" as="geometry">
            <mxPoint x="345" y="9.5" as="sourcePoint" />
            <mxPoint x="355" y="9.5" as="targetPoint" />
          </mxGeometry>
        </mxCell>
      </root>
    </mxGraphModel>
  </diagram>
</mxfile>
